<?xml version="1.0" encoding="UTF-8" standalone="no"?>
<!DOCTYPE svg PUBLIC "-//W3C//DTD SVG 1.1//EN" "http://www.w3.org/Graphics/SVG/1.1/DTD/svg11.dtd">
<svg width="100%" height="100%" viewBox="0 0 1200 1200" version="1.1" xmlns="http://www.w3.org/2000/svg" xmlns:xlink="http://www.w3.org/1999/xlink" xml:space="preserve" xmlns:serif="http://www.serif.com/" style="fill-rule:evenodd;clip-rule:evenodd;stroke-linejoin:round;stroke-miterlimit:2;">
    <g transform="matrix(1,0,0,1,-1672,-3126)">
        <rect id="earth-like-planet" serif:id="earth like planet" x="1672" y="3126" width="1200" height="1200"/>
        <g id="earth-like-planet1" serif:id="earth like planet">
            <g transform="matrix(1.11446,0,0,1.11446,-252.247,-413.096)">
                <circle cx="2265" cy="3714" r="415" style="fill:rgb(30,144,255);fill-opacity:0.46;"/>
            </g>
            <g transform="matrix(1.2,0,0,1.2,-446,-730.8)">
                <circle cx="2265" cy="3714" r="415" style="fill:rgb(30,144,255);fill-opacity:0.33;"/>
            </g>
            <g transform="matrix(1,0,0,1,7,12)">
                <circle cx="2265" cy="3714" r="415" style="fill:rgb(30,144,255);"/>
                <clipPath id="_clip1">
                    <circle cx="2265" cy="3714" r="415"/>
                </clipPath>
                <g clip-path="url(#_clip1)">
                    <g transform="matrix(1,0,0,1,-7,-12)">
                        <ellipse cx="2272" cy="3321" rx="120" ry="45" style="fill:white;"/>
                    </g>
                    <g transform="matrix(1,0,0,1,-7,798)">
                        <ellipse cx="2272" cy="3321" rx="120" ry="45" style="fill:white;"/>
                    </g>
                </g>
            </g>
            <g id="land-masses" serif:id="land masses">
                <g transform="matrix(0.545841,0,0,0.545841,889.182,1585.46)">
                    <path d="M1972,3570C1956,3554 1950.5,3508 1972,3498C1993.5,3488 2075,3486 2101,3510C2127,3534 2133.5,3614 2128,3642C2123.5,3664.89 2078,3686 2068,3678C2058,3670 2084,3612 2068,3594C2052,3576 1988,3586 1972,3570Z" style="fill:rgb(21,101,178);"/>
                </g>
                <g transform="matrix(1,0,0,1,85.6268,-146.369)">
                    <path d="M2392,3907C2428.43,3857.27 2432,3766.03 2430,3726C2428.71,3700.2 2400.14,3696.1 2380,3666.8C2361.03,3639.2 2223.22,3666.74 2230,3745.2C2236.02,3814.78 2295.05,3806.67 2292,3846C2288.33,3893.3 2163.34,3987.71 2208,4029C2244.66,4062.89 2355,3957.5 2392,3907Z" style="fill:rgb(21,101,178);"/>
                </g>
            </g>
            <g id="islands">
                <g transform="matrix(0.670913,0,0,0.412848,1136.2,2256.47)">
                    <path d="M2229.5,3559.5C2229.5,3585.16 2216.68,3606 2200.89,3606L2022.61,3606C2006.82,3606 1994,3585.16 1994,3559.5C1994,3533.84 2006.82,3513 2022.61,3513L2200.89,3513C2216.68,3513 2229.5,3533.84 2229.5,3559.5Z" style="fill:rgb(44,179,79);"/>
                </g>
                <g transform="matrix(0.670913,0,0,0.412848,934.2,2494.47)">
                    <path d="M2229.5,3559.5C2229.5,3585.16 2216.68,3606 2200.89,3606L2022.61,3606C2006.82,3606 1994,3585.16 1994,3559.5C1994,3533.84 2006.82,3513 2022.61,3513L2200.89,3513C2216.68,3513 2229.5,3533.84 2229.5,3559.5Z" style="fill:rgb(44,179,79);"/>
                </g>
                <g transform="matrix(0.670913,0,0,0.412848,656.2,2180.66)">
                    <path d="M2229.5,3559.5C2229.5,3585.16 2216.68,3606 2200.89,3606L2022.61,3606C2006.82,3606 1994,3585.16 1994,3559.5C1994,3533.84 2006.82,3513 2022.61,3513L2200.89,3513C2216.68,3513 2229.5,3533.84 2229.5,3559.5Z" style="fill:rgb(44,179,79);"/>
                </g>
            </g>
            <g id="clouds">
                <g transform="matrix(0.574561,0,0,0.96,952.197,49.12)">
                    <path d="M2217,3528C2217,3541.8 2198.28,3553 2175.23,3553L2030.77,3553C2007.72,3553 1989,3541.8 1989,3528C1989,3514.2 2007.72,3503 2030.77,3503L2175.23,3503C2198.28,3503 2217,3514.2 2217,3528Z" style="fill:white;fill-opacity:0.55;"/>
                </g>
                <g transform="matrix(0.605263,0,0,1,956.632,78)">
                    <path d="M2217,3528C2217,3541.8 2198.49,3553 2175.7,3553L2030.3,3553C2007.51,3553 1989,3541.8 1989,3528C1989,3514.2 2007.51,3503 2030.3,3503L2175.7,3503C2198.49,3503 2217,3514.2 2217,3528Z" style="fill:white;fill-opacity:0.63;"/>
                </g>
                <g transform="matrix(1.32895,0,0,1,-731.276,198)">
                    <path d="M2217,3528C2217,3541.8 2208.57,3553 2198.19,3553L2007.81,3553C1997.43,3553 1989,3541.8 1989,3528C1989,3514.2 1997.43,3503 2007.81,3503L2198.19,3503C2208.57,3503 2217,3514.2 2217,3528Z" style="fill:white;fill-opacity:0.73;"/>
                </g>
                <g transform="matrix(0.719298,0,0,0.68,910.316,1429.96)">
                    <path d="M2217,3528C2217,3541.8 2206.41,3553 2193.37,3553L2012.63,3553C1999.59,3553 1989,3541.8 1989,3528C1989,3514.2 1999.59,3503 2012.63,3503L2193.37,3503C2206.41,3503 2217,3514.2 2217,3528Z" style="fill:white;fill-opacity:0.78;"/>
                </g>
                <g transform="matrix(1,0,0,1,112,398)">
                    <path d="M2217,3528C2217,3541.8 2205.8,3553 2192,3553L2014,3553C2000.2,3553 1989,3541.8 1989,3528C1989,3514.2 2000.2,3503 2014,3503L2192,3503C2205.8,3503 2217,3514.2 2217,3528Z" style="fill:white;fill-opacity:0.71;"/>
                </g>
                <g transform="matrix(1,0,0,1,8.5,-58)">
                    <path d="M2519,3617.58C2519,3624.26 2522.69,3630.4 2528.6,3633.53C2538.06,3638.57 2544.5,3648.54 2544.5,3660C2544.5,3676.56 2531.06,3690 2514.5,3690L2413.5,3690C2396.94,3690 2383.5,3676.56 2383.5,3660C2383.5,3643.44 2396.94,3630 2413.5,3630L2452.17,3630C2462.57,3630 2471,3621.57 2471,3611.17C2471,3611.16 2471,3611.16 2471,3611.16C2471,3606.61 2469.19,3602.25 2465.97,3599.03C2462.75,3595.81 2458.39,3594 2453.84,3594C2453.3,3594 2453,3594 2453,3594C2436.44,3594 2423,3580.56 2423,3564C2423,3547.44 2436.44,3534 2453,3534L2554,3534C2570.56,3534 2584,3547.44 2584,3564C2584,3580.56 2570.56,3594 2554,3594L2536.73,3594C2532.03,3594 2527.52,3595.87 2524.19,3599.19C2520.87,3602.52 2519,3607.03 2519,3611.73C2519,3613.7 2519,3615.68 2519,3617.58Z" style="fill:white;fill-opacity:0.78;"/>
                </g>
                <g transform="matrix(0.807692,0,0,0.807692,10.8654,945.615)">
                    <path d="M2519,3618.68C2519,3624.81 2522.45,3630.42 2527.93,3633.17C2537.75,3638.1 2544.5,3648.27 2544.5,3660C2544.5,3676.56 2531.06,3690 2514.5,3690L2413.5,3690C2396.94,3690 2383.5,3676.56 2383.5,3660C2383.5,3643.44 2396.94,3630 2413.5,3630L2450.1,3630C2461.64,3630 2471,3620.64 2471,3609.1L2471,3609.1C2471,3600.76 2464.24,3594 2455.9,3594C2454.16,3594 2453,3594 2453,3594C2436.44,3594 2423,3580.56 2423,3564C2423,3547.44 2436.44,3534 2453,3534L2554,3534C2570.56,3534 2584,3547.44 2584,3564C2584,3580.56 2570.56,3594 2554,3594L2540.52,3594C2534.82,3594 2529.34,3596.27 2525.3,3600.3C2521.27,3604.34 2519,3609.82 2519,3615.52C2519,3616.6 2519,3617.66 2519,3618.68Z" style="fill:white;fill-opacity:0.78;"/>
                </g>
            </g>
            <g id="satellite" transform="matrix(0.765328,0,0,0.765328,1146.56,292.136)">
                <g>
                    <g transform="matrix(1,0,0,1,-7.60486,0)">
                        <circle cx="2042.39" cy="3859.61" r="37.605" style="fill:rgb(86,120,139);"/>
                    </g>
                    <g transform="matrix(0.797769,0,0,0.797769,405.43,780.531)">
                        <circle cx="2042.39" cy="3859.61" r="37.605" style="fill:rgb(144,171,189);"/>
                    </g>
                </g>
                <g transform="matrix(1,0,0,1,-12,1.60486)">
                    <path d="M2212,3842.7L2212,3868.9C2212,3876.13 2206.13,3882 2198.9,3882L2105.1,3882C2097.87,3882 2092,3876.13 2092,3868.9L2092,3842.7C2092,3835.47 2097.87,3829.61 2105.1,3829.61L2198.9,3829.61C2206.13,3829.61 2212,3835.47 2212,3842.7Z" style="fill:rgb(11,104,127);"/>
                    <g transform="matrix(0.9,0,0,0.770971,215.2,883.09)">
                        <path d="M2212,3842.7L2212,3868.9C2212,3876.13 2206.97,3882 2200.78,3882L2103.22,3882C2097.03,3882 2092,3876.13 2092,3868.9L2092,3842.7C2092,3835.47 2097.03,3829.61 2103.22,3829.61L2200.78,3829.61C2206.97,3829.61 2212,3835.47 2212,3842.7Z" style="fill:rgb(0,206,200);"/>
                    </g>
                    <g transform="matrix(1,0,0,1,12,0)">
                        <g transform="matrix(1,0,0,1,6,-1.76484)">
                            <rect x="2092" y="3840" width="18" height="15.802" style="fill:rgb(129,235,235);"/>
                        </g>
                        <g transform="matrix(1,0,0,1,6.24394,16.8258)">
                            <rect x="2092" y="3840" width="18" height="15.802" style="fill:rgb(129,235,235);"/>
                        </g>
                        <g transform="matrix(1,0,0,1,29.4615,-1.36391)">
                            <rect x="2092" y="3840" width="18" height="15.802" style="fill:rgb(129,235,235);"/>
                        </g>
                        <g transform="matrix(1,0,0,1,29.7054,17.2267)">
                            <rect x="2092" y="3840" width="18" height="15.802" style="fill:rgb(129,235,235);"/>
                        </g>
                        <g transform="matrix(1,0,0,1,51.6785,-1.02333)">
                            <rect x="2092" y="3840" width="18" height="15.802" style="fill:rgb(129,235,235);"/>
                        </g>
                        <g transform="matrix(1,0,0,1,51.9224,17.5673)">
                            <rect x="2092" y="3840" width="18" height="15.802" style="fill:rgb(129,235,235);"/>
                        </g>
                        <g transform="matrix(1,0,0,1,74.4797,-1.33971)">
                            <rect x="2092" y="3840" width="18" height="15.802" style="fill:rgb(129,235,235);"/>
                        </g>
                        <g transform="matrix(1,0,0,1,74.7236,17.2509)">
                            <rect x="2092" y="3840" width="18" height="15.802" style="fill:rgb(129,235,235);"/>
                        </g>
                    </g>
                </g>
                <g transform="matrix(1,0,0,1,-222,5.40729)">
                    <path d="M2212,3842.7L2212,3868.9C2212,3876.13 2206.13,3882 2198.9,3882L2105.1,3882C2097.87,3882 2092,3876.13 2092,3868.9L2092,3842.7C2092,3835.47 2097.87,3829.61 2105.1,3829.61L2198.9,3829.61C2206.13,3829.61 2212,3835.47 2212,3842.7Z" style="fill:rgb(11,104,127);"/>
                    <g transform="matrix(0.9,0,0,0.770971,215.2,883.09)">
                        <path d="M2212,3842.7L2212,3868.9C2212,3876.13 2206.97,3882 2200.78,3882L2103.22,3882C2097.03,3882 2092,3876.13 2092,3868.9L2092,3842.7C2092,3835.47 2097.03,3829.61 2103.22,3829.61L2200.78,3829.61C2206.97,3829.61 2212,3835.47 2212,3842.7Z" style="fill:rgb(0,206,200);"/>
                    </g>
                    <g transform="matrix(1,0,0,1,12,0)">
                        <g transform="matrix(1,0,0,1,6,-1.76484)">
                            <rect x="2092" y="3840" width="18" height="15.802" style="fill:rgb(129,235,235);"/>
                        </g>
                        <g transform="matrix(1,0,0,1,6.24394,16.8258)">
                            <rect x="2092" y="3840" width="18" height="15.802" style="fill:rgb(129,235,235);"/>
                        </g>
                        <g transform="matrix(1,0,0,1,29.4615,-1.36391)">
                            <rect x="2092" y="3840" width="18" height="15.802" style="fill:rgb(129,235,235);"/>
                        </g>
                        <g transform="matrix(1,0,0,1,29.7054,17.2267)">
                            <rect x="2092" y="3840" width="18" height="15.802" style="fill:rgb(129,235,235);"/>
                        </g>
                        <g transform="matrix(1,0,0,1,51.6785,-1.02333)">
                            <rect x="2092" y="3840" width="18" height="15.802" style="fill:rgb(129,235,235);"/>
                        </g>
                        <g transform="matrix(1,0,0,1,51.9224,17.5673)">
                            <rect x="2092" y="3840" width="18" height="15.802" style="fill:rgb(129,235,235);"/>
                        </g>
                        <g transform="matrix(1,0,0,1,74.4797,-1.33971)">
                            <rect x="2092" y="3840" width="18" height="15.802" style="fill:rgb(129,235,235);"/>
                        </g>
                        <g transform="matrix(1,0,0,1,74.7236,17.2509)">
                            <rect x="2092" y="3840" width="18" height="15.802" style="fill:rgb(129,235,235);"/>
                        </g>
                    </g>
                </g>
            </g>
        </g>
    </g>
</svg>
