<?xml version="1.0" encoding="UTF-8" standalone="no"?>
<!DOCTYPE svg PUBLIC "-//W3C//DTD SVG 1.1//EN" "http://www.w3.org/Graphics/SVG/1.1/DTD/svg11.dtd">
<svg width="100%" height="100%" viewBox="0 0 3840 2160" version="1.1" xmlns="http://www.w3.org/2000/svg" xmlns:xlink="http://www.w3.org/1999/xlink" xml:space="preserve" xmlns:serif="http://www.serif.com/" style="fill-rule:evenodd;clip-rule:evenodd;stroke-linecap:round;stroke-linejoin:round;stroke-miterlimit:1.5;">
    <g transform="matrix(1,0,0,1,0,-660)">
        <g id="stars" transform="matrix(1.77778,0,0,1.8,-640,3673.2)">
            <rect x="360" y="-1674" width="2160" height="1200" style="fill:rgb(59,4,85);"/>
            <g id="stars1">
                <g id="_3-stars" serif:id="3 stars">
                    <g transform="matrix(0.135662,0,0,0.133987,405.387,-1716.4)">
                        <circle cx="248" cy="899" r="85" style="fill:rgb(59,4,85);stroke:white;stroke-width:58.05px;"/>
                    </g>
                    <g transform="matrix(0.0959559,0,0,0.0947712,444.203,-1693.92)">
                        <circle cx="248" cy="899" r="85" style="fill:rgb(59,4,85);stroke:white;stroke-width:46.9px;"/>
                    </g>
                    <g transform="matrix(0.369643,0,0,0.365079,383.512,-1909.79)">
                        <circle cx="224" cy="882.5" r="17.5" style="fill:white;"/>
                    </g>
                </g>
                <g id="_3-stars1" serif:id="3 stars" transform="matrix(1,0,0,1,810,409.444)">
                    <g transform="matrix(0.135662,0,0,0.133987,405.387,-1716.4)">
                        <circle cx="248" cy="899" r="85" style="fill:rgb(59,4,85);stroke:white;stroke-width:58.05px;"/>
                    </g>
                    <g transform="matrix(0.0959559,0,0,0.0947712,444.203,-1693.92)">
                        <circle cx="248" cy="899" r="85" style="fill:rgb(59,4,85);stroke:white;stroke-width:46.9px;"/>
                    </g>
                    <g transform="matrix(0.369643,0,0,0.365079,383.512,-1909.79)">
                        <circle cx="224" cy="882.5" r="17.5" style="fill:white;"/>
                    </g>
                </g>
                <g id="_3-stars2" serif:id="3 stars" transform="matrix(1,0,0,1,380.672,809.444)">
                    <g transform="matrix(0.135662,0,0,0.133987,405.387,-1716.4)">
                        <circle cx="248" cy="899" r="85" style="fill:rgb(59,4,85);stroke:white;stroke-width:58.05px;"/>
                    </g>
                    <g transform="matrix(0.0959559,0,0,0.0947712,444.203,-1693.92)">
                        <circle cx="248" cy="899" r="85" style="fill:rgb(59,4,85);stroke:white;stroke-width:46.9px;"/>
                    </g>
                    <g transform="matrix(0.369643,0,0,0.365079,383.512,-1909.79)">
                        <circle cx="224" cy="882.5" r="17.5" style="fill:white;"/>
                    </g>
                </g>
                <g id="_3-stars3" serif:id="3 stars" transform="matrix(1,0,0,1,1436.34,609.444)">
                    <g transform="matrix(0.135662,0,0,0.133987,405.387,-1716.4)">
                        <circle cx="248" cy="899" r="85" style="fill:rgb(59,4,85);stroke:white;stroke-width:58.05px;"/>
                    </g>
                    <g transform="matrix(0.0959559,0,0,0.0947712,444.203,-1693.92)">
                        <circle cx="248" cy="899" r="85" style="fill:rgb(59,4,85);stroke:white;stroke-width:46.9px;"/>
                    </g>
                    <g transform="matrix(0.369643,0,0,0.365079,383.512,-1909.79)">
                        <circle cx="224" cy="882.5" r="17.5" style="fill:white;"/>
                    </g>
                </g>
                <g id="_3-stars4" serif:id="3 stars" transform="matrix(1,0,0,1,1773.84,942.778)">
                    <g transform="matrix(0.135662,0,0,0.133987,405.387,-1716.4)">
                        <circle cx="248" cy="899" r="85" style="fill:rgb(59,4,85);stroke:white;stroke-width:58.05px;"/>
                    </g>
                    <g transform="matrix(0.0959559,0,0,0.0947712,444.203,-1693.92)">
                        <circle cx="248" cy="899" r="85" style="fill:rgb(59,4,85);stroke:white;stroke-width:46.9px;"/>
                    </g>
                    <g transform="matrix(0.369643,0,0,0.365079,383.512,-1909.79)">
                        <circle cx="224" cy="882.5" r="17.5" style="fill:white;"/>
                    </g>
                </g>
                <g id="_3-stars5" serif:id="3 stars" transform="matrix(1,0,0,1,1571.34,107.222)">
                    <g transform="matrix(0.135662,0,0,0.133987,405.387,-1716.4)">
                        <circle cx="248" cy="899" r="85" style="fill:rgb(59,4,85);stroke:white;stroke-width:58.05px;"/>
                    </g>
                    <g transform="matrix(0.0959559,0,0,0.0947712,444.203,-1693.92)">
                        <circle cx="248" cy="899" r="85" style="fill:rgb(59,4,85);stroke:white;stroke-width:46.9px;"/>
                    </g>
                    <g transform="matrix(0.369643,0,0,0.365079,383.512,-1909.79)">
                        <circle cx="224" cy="882.5" r="17.5" style="fill:white;"/>
                    </g>
                </g>
            </g>
            <g id="stars2">
                <g transform="matrix(0.321429,0,0,0.31746,382.982,-1826.38)">
                    <circle cx="212" cy="928" r="28" style="fill:white;"/>
                </g>
                <g transform="matrix(0.321429,0,0,0.31746,554.832,-1742.37)">
                    <circle cx="212" cy="928" r="28" style="fill:white;"/>
                </g>
                <g transform="matrix(0.321429,0,0,0.31746,474.633,-1615.35)">
                    <circle cx="212" cy="928" r="28" style="fill:white;"/>
                </g>
                <g transform="matrix(0.321429,0,0,0.31746,1087.71,-1647.26)">
                    <circle cx="212" cy="928" r="28" style="fill:white;"/>
                </g>
                <g transform="matrix(0.321429,0,0,0.31746,1004.96,-1514.8)">
                    <circle cx="212" cy="928" r="28" style="fill:white;"/>
                </g>
                <g transform="matrix(0.321429,0,0,0.31746,780.189,-1486.45)">
                    <circle cx="212" cy="928" r="28" style="fill:white;"/>
                </g>
                <g transform="matrix(0.321429,0,0,0.31746,959.361,-1380.07)">
                    <circle cx="212" cy="928" r="28" style="fill:white;"/>
                </g>
                <g transform="matrix(0.388804,0,0,0.384004,1113.04,-1349.58)">
                    <circle cx="212" cy="928" r="28" style="fill:white;"/>
                </g>
                <g transform="matrix(0.388804,0,0,0.384004,1567.12,-1224.17)">
                    <circle cx="212" cy="928" r="28" style="fill:white;"/>
                </g>
                <g transform="matrix(0.388804,0,0,0.384004,1855.94,-1556.78)">
                    <circle cx="212" cy="928" r="28" style="fill:white;"/>
                </g>
                <g transform="matrix(0.388804,0,0,0.384004,2096.88,-1712.09)">
                    <circle cx="212" cy="928" r="28" style="fill:white;"/>
                </g>
                <g transform="matrix(0.388804,0,0,0.384004,2118.58,-1683.9)">
                    <circle cx="212" cy="928" r="28" style="fill:white;"/>
                </g>
                <g transform="matrix(0.388804,0,0,0.384004,2174.68,-1440.46)">
                    <circle cx="212" cy="928" r="28" style="fill:white;"/>
                </g>
                <g transform="matrix(0.388804,0,0,0.384004,2353.68,-1535.15)">
                    <circle cx="212" cy="928" r="28" style="fill:white;"/>
                </g>
                <g transform="matrix(0.388804,0,0,0.384004,2028.36,-1261.23)">
                    <circle cx="212" cy="928" r="28" style="fill:white;"/>
                </g>
                <g transform="matrix(0.388804,0,0,0.384004,2303.42,-1072.08)">
                    <circle cx="212" cy="928" r="28" style="fill:white;"/>
                </g>
                <g transform="matrix(0.388804,0,0,0.384004,2267.31,-890.5)">
                    <circle cx="212" cy="928" r="28" style="fill:white;"/>
                </g>
                <g transform="matrix(0.388804,0,0,0.384004,1811.32,-1040.37)">
                    <circle cx="212" cy="928" r="28" style="fill:white;"/>
                </g>
                <g transform="matrix(0.388804,0,0,0.384004,2130.84,-1717.77)">
                    <circle cx="212" cy="928" r="28" style="fill:white;"/>
                </g>
                <g transform="matrix(0.388804,0,0,0.384004,2198.95,-1951.55)">
                    <circle cx="212" cy="928" r="28" style="fill:white;"/>
                </g>
                <g transform="matrix(0.388804,0,0,0.384004,1319.07,-1403.58)">
                    <circle cx="212" cy="928" r="28" style="fill:white;"/>
                </g>
                <g transform="matrix(0.388804,0,0,0.384004,845.019,-1798.04)">
                    <circle cx="212" cy="928" r="28" style="fill:white;"/>
                </g>
                <g transform="matrix(0.321429,0,0,0.31746,1337.04,-1605.82)">
                    <circle cx="212" cy="928" r="28" style="fill:white;"/>
                </g>
                <g transform="matrix(0.321429,0,0,0.31746,1376.53,-1476.78)">
                    <circle cx="212" cy="928" r="28" style="fill:white;"/>
                </g>
                <g transform="matrix(0.321429,0,0,0.31746,1612.62,-1553.41)">
                    <circle cx="212" cy="928" r="28" style="fill:white;"/>
                </g>
                <g transform="matrix(0.321429,0,0,0.31746,1413.45,-1730.51)">
                    <circle cx="212" cy="928" r="28" style="fill:white;"/>
                </g>
                <g transform="matrix(0.321429,0,0,0.31746,1581.26,-1793.92)">
                    <circle cx="212" cy="928" r="28" style="fill:white;"/>
                </g>
                <g transform="matrix(0.321429,0,0,0.31746,1112.83,-1818.64)">
                    <circle cx="212" cy="928" r="28" style="fill:white;"/>
                </g>
                <g transform="matrix(0.321429,0,0,0.31746,972.565,-1921.75)">
                    <circle cx="212" cy="928" r="28" style="fill:white;"/>
                </g>
                <g transform="matrix(0.321429,0,0,0.31746,638.223,-1388.3)">
                    <circle cx="212" cy="928" r="28" style="fill:white;"/>
                </g>
                <g transform="matrix(0.321429,0,0,0.31746,510.479,-1285.96)">
                    <circle cx="212" cy="928" r="28" style="fill:white;"/>
                </g>
                <g transform="matrix(0.321429,0,0,0.31746,849.05,-1201.29)">
                    <circle cx="212" cy="928" r="28" style="fill:white;"/>
                </g>
                <g transform="matrix(0.321429,0,0,0.31746,457.654,-1036.32)">
                    <circle cx="212" cy="928" r="28" style="fill:white;"/>
                </g>
                <g transform="matrix(0.321429,0,0,0.31746,678.008,-952.487)">
                    <circle cx="212" cy="928" r="28" style="fill:white;"/>
                </g>
                <g transform="matrix(0.321429,0,0,0.31746,1433.17,-963.56)">
                    <circle cx="212" cy="928" r="28" style="fill:white;"/>
                </g>
            </g>
            <g id="planets">
                <g id="planet1">
                    <g transform="matrix(0.5625,0,0,0.555556,360,-2040.67)">
                        <circle cx="1107" cy="1505" r="333" style="fill:rgb(237,32,97);"/>
                    </g>
                    <g transform="matrix(0.0824152,0,0,0.0813977,808.766,-1423.61)">
                        <circle cx="1107" cy="1505" r="333" style="fill:rgb(169,26,71);"/>
                    </g>
                    <g transform="matrix(0.0470266,0,0,0.046446,846.004,-1253.78)">
                        <circle cx="1107" cy="1505" r="333" style="fill:rgb(169,26,71);"/>
                    </g>
                    <g transform="matrix(0.0412076,0,0,0.0406989,881.827,-1403.02)">
                        <circle cx="1107" cy="1505" r="333" style="fill:rgb(169,26,71);"/>
                    </g>
                </g>
                <g id="planet2" transform="matrix(0.391892,0,0,0.391892,1656.49,-862.778)">
                    <g transform="matrix(0.5625,0,0,0.555556,360,-2040.67)">
                        <circle cx="1107" cy="1505" r="333" style="fill:rgb(30,144,255);"/>
                    </g>
                    <g transform="matrix(0.0824152,0,0,0.0813977,808.766,-1423.61)">
                        <circle cx="1107" cy="1505" r="333" style="fill:rgb(21,101,178);"/>
                    </g>
                    <g transform="matrix(0.0470266,0,0,0.046446,846.004,-1253.78)">
                        <circle cx="1107" cy="1505" r="333" style="fill:rgb(21,101,178);"/>
                    </g>
                    <g transform="matrix(0.0412076,0,0,0.0406989,881.827,-1403.02)">
                        <circle cx="1107" cy="1505" r="333" style="fill:rgb(21,101,178);"/>
                    </g>
                </g>
                <g id="planet21" serif:id="planet2" transform="matrix(0.22973,0,0,0.22973,1547.53,-664.222)">
                    <g transform="matrix(0.5625,0,0,0.555556,360,-2040.67)">
                        <circle cx="1107" cy="1505" r="333" style="fill:rgb(30,144,255);"/>
                    </g>
                    <g transform="matrix(0.0824152,0,0,0.0813977,808.766,-1423.61)">
                        <circle cx="1107" cy="1505" r="333" style="fill:rgb(21,101,178);"/>
                    </g>
                    <g transform="matrix(0.0470266,0,0,0.046446,846.004,-1253.78)">
                        <circle cx="1107" cy="1505" r="333" style="fill:rgb(21,101,178);"/>
                    </g>
                    <g transform="matrix(0.0412076,0,0,0.0406989,881.827,-1403.02)">
                        <circle cx="1107" cy="1505" r="333" style="fill:rgb(21,101,178);"/>
                    </g>
                </g>
            </g>
        </g>
    </g>
</svg>
